<?xml version="1.0" standalone="no"?>
<!DOCTYPE svg PUBLIC "-//W3C//DTD SVG 20010904//EN"
 "http://www.w3.org/TR/2001/REC-SVG-20010904/DTD/svg10.dtd">
<svg version="1.0" xmlns="http://www.w3.org/2000/svg"
 width="167.000000pt" height="136.000000pt" viewBox="0 0 167.000000 136.000000"
 preserveAspectRatio="xMidYMid meet">

<g transform="translate(0.000000,136.000000) scale(0.100000,-0.100000)"
fill="#000000" stroke="none">
<path d="M0 823 c0 -10 16 -31 35 -46 l36 -28 -1 -237 -1 -237 113 0 113 0 5
142 5 143 93 -75 93 -74 91 74 c50 41 95 72 100 69 5 -3 8 -67 7 -143 l-2
-136 116 -3 117 -3 0 221 0 220 85 0 85 0 0 -220 0 -220 120 0 120 0 0 220 0
220 120 0 120 0 0 65 0 65 -407 0 c-223 0 -404 -3 -400 -6 6 -6 -259 -224
-272 -224 -3 0 -70 52 -148 115 l-142 115 -100 0 c-90 0 -101 -2 -101 -17z"/>
</g>
</svg>
