<?xml version="1.0" standalone="no"?>
<!DOCTYPE svg PUBLIC "-//W3C//DTD SVG 20010904//EN"
 "http://www.w3.org/TR/2001/REC-SVG-20010904/DTD/svg10.dtd">
<svg version="1.0" xmlns="http://www.w3.org/2000/svg"
 width="354.000000pt" height="174.000000pt" viewBox="0 0 354.000000 174.000000"
 preserveAspectRatio="xMidYMid meet">

<g transform="translate(0.000000,174.000000) scale(0.100000,-0.100000)"
fill="#000000" stroke="none">
<path d="M910 1710 c0 -20 7 -20 415 -20 408 0 415 0 415 20 0 20 -7 20 -415
20 -408 0 -415 0 -415 -20z"/>
<path d="M1810 1710 c0 -20 7 -20 415 -20 408 0 415 0 415 20 0 20 -7 20 -415
20 -408 0 -415 0 -415 -20z"/>
<path d="M2700 1710 c0 -20 7 -20 415 -20 408 0 415 0 415 20 0 20 -7 20 -415
20 -408 0 -415 0 -415 -20z"/>
<path d="M18 1633 c6 -2 12 -20 12 -39 0 -19 5 -34 10 -34 6 0 10 16 10 35 0
24 5 35 15 35 10 0 15 -11 15 -35 0 -19 5 -35 10 -35 6 0 10 9 10 20 0 11 5
20 10 20 6 0 10 -9 10 -20 0 -11 7 -20 15 -20 11 0 15 11 15 40 0 29 -4 40
-15 40 -8 0 -15 -7 -15 -15 0 -8 -4 -15 -10 -15 -5 0 -10 7 -10 15 0 11 -12
15 -47 14 -27 0 -42 -3 -35 -6z"/>
<path d="M160 1600 c0 -22 5 -40 10 -40 6 0 10 18 10 40 0 22 -4 40 -10 40 -5
0 -10 -18 -10 -40z"/>
<path d="M190 1600 c0 -41 19 -58 21 -17 l0 22 11 -22 c18 -37 38 -28 38 17 0
29 -4 40 -15 40 -8 0 -15 -8 -15 -17 -1 -17 -1 -17 -11 0 -17 29 -29 19 -29
-23z"/>
<path d="M270 1600 c0 -38 20 -60 20 -22 1 16 1 16 14 0 14 -19 36 -24 36 -9
0 5 -7 14 -15 21 -14 12 -14 15 1 31 14 16 14 19 3 19 -8 0 -20 -5 -27 -12 -9
-9 -12 -9 -12 0 0 7 -4 12 -10 12 -5 0 -10 -18 -10 -40z"/>
<path d="M910 1620 c-15 -28 4 -60 35 -60 13 0 27 5 31 11 5 9 -1 10 -20 5
-24 -6 -26 -4 -26 24 0 28 2 30 26 24 19 -5 25 -4 20 5 -12 18 -54 13 -66 -9z"/>
<path d="M990 1620 c-24 -45 44 -86 69 -42 10 16 10 16 11 -1 0 -15 7 -18 33
-15 29 3 32 6 32 38 0 32 -3 35 -32 38 -26 3 -33 0 -33 -15 -1 -17 -1 -17 -11
0 -14 23 -56 22 -69 -3z m50 -14 c0 -14 -5 -28 -10 -31 -13 -8 -24 20 -16 40
9 24 26 17 26 -9z m80 -6 c0 -20 -5 -30 -15 -30 -10 0 -15 10 -15 30 0 20 5
30 15 30 10 0 15 -10 15 -30z"/>
<path d="M1150 1600 c0 -40 0 -40 38 -39 30 2 32 3 10 6 -34 5 -37 30 -5 36
l22 4 -22 2 c-32 2 -29 19 5 24 22 3 20 4 -10 6 -38 1 -38 1 -38 -39z"/>
<path d="M1810 1600 c0 -38 2 -40 29 -40 16 0 32 6 34 13 4 10 6 10 6 0 1 -8
15 -12 39 -12 23 1 28 3 15 6 -13 2 -23 11 -23 18 0 7 10 16 23 18 l22 4 -22
2 c-13 0 -23 5 -23 10 0 5 10 12 23 14 14 3 9 5 -15 6 -21 0 -38 -4 -41 -11
-4 -10 -6 -10 -6 0 -1 7 -14 12 -31 12 -28 0 -30 -2 -30 -40z m45 0 c0 -13 -6
-25 -12 -27 -9 -3 -13 6 -13 27 0 21 4 30 13 28 6 -3 12 -15 12 -28z"/>
<path d="M1960 1600 c0 -39 1 -40 33 -39 23 1 26 3 10 6 -19 4 -23 11 -23 39
0 19 -4 34 -10 34 -5 0 -10 -18 -10 -40z"/>
<path d="M2030 1600 c0 -48 20 -55 21 -7 l1 32 11 -33 c13 -42 36 -39 53 8
l12 35 1 -37 1 -38 45 0 c33 0 45 4 45 15 0 8 4 15 9 15 5 0 11 -7 15 -15 3
-8 13 -15 21 -15 11 0 13 4 8 13 -4 6 -8 23 -8 37 0 21 -5 26 -32 28 -32 3
-33 2 -33 -32 0 -32 -3 -36 -25 -36 -32 0 -34 27 -2 33 l22 4 -22 2 c-13 0
-23 5 -23 10 0 5 10 12 23 14 12 2 1 5 -24 6 -40 1 -48 -2 -54 -21 l-8 -23 -4
23 c-3 15 -11 22 -29 22 -21 0 -24 -4 -24 -40z m220 15 c0 -8 -7 -15 -15 -15
-8 0 -15 7 -15 15 0 8 7 15 15 15 8 0 15 -7 15 -15z"/>
<path d="M2690 1601 c0 -23 5 -41 10 -41 6 0 10 7 10 15 0 19 16 20 23 1 4
-10 20 -14 54 -13 48 2 48 2 51 40 2 21 -1 37 -7 37 -6 0 -11 -13 -11 -29 0
-17 -4 -32 -9 -35 -10 -7 -21 17 -21 45 0 10 -4 19 -10 19 -5 0 -10 -16 -10
-37 0 -20 -3 -33 -7 -29 -5 4 -8 20 -8 34 0 23 -5 27 -32 30 -32 3 -33 2 -33
-37z m50 14 c0 -8 -7 -15 -15 -15 -8 0 -15 7 -15 15 0 8 7 15 15 15 8 0 15 -7
15 -15z"/>
<path d="M2850 1600 c0 -41 20 -58 21 -17 l0 22 16 -22 c23 -34 33 -28 33 17
0 41 -19 58 -21 18 l0 -23 -11 23 c-18 36 -38 27 -38 -18z"/>
<path d="M447 1323 c-4 -3 -7 -28 -7 -55 0 -42 -3 -48 -21 -48 l-21 0 21 -36
c12 -19 19 -40 16 -45 -4 -5 4 -9 17 -8 13 0 18 3 11 5 -8 4 -6 14 8 37 23 38
24 47 4 47 -11 0 -15 11 -15 40 l0 40 425 0 424 0 4 -57 c3 -50 4 -49 3 12
l-1 70 -431 3 c-237 1 -434 -1 -437 -5z"/>
<path d="M1298 1133 c12 -2 32 -2 45 0 12 2 2 4 -23 4 -25 0 -35 -2 -22 -4z"/>
<path d="M2198 1133 c12 -2 32 -2 45 0 12 2 2 4 -23 4 -25 0 -35 -2 -22 -4z"/>
<path d="M388 1123 c7 -3 16 -2 19 1 4 3 -2 6 -13 5 -11 0 -14 -3 -6 -6z"/>
<path d="M3078 1123 c12 -2 30 -2 40 0 9 3 -1 5 -23 4 -22 0 -30 -2 -17 -4z"/>
<path d="M1195 1108 c-50 -27 -137 -130 -122 -144 2 -3 10 8 16 24 14 34 73
93 116 115 17 9 26 16 20 16 -5 0 -19 -5 -30 -11z"/>
<path d="M1435 1103 c43 -22 94 -72 115 -113 11 -19 19 -30 20 -24 1 37 -117
155 -154 154 -6 -1 3 -8 19 -17z"/>
<path d="M2095 1108 c-50 -27 -137 -130 -122 -144 2 -3 10 8 16 24 14 34 73
93 116 115 17 9 26 16 20 16 -5 0 -19 -5 -30 -11z"/>
<path d="M2341 1100 c34 -18 68 -49 104 -95 l16 -20 -10 20 c-24 46 -106 116
-135 115 -6 -1 5 -10 25 -20z"/>
<path d="M3158 1113 c7 -3 16 -2 19 1 4 3 -2 6 -13 5 -11 0 -14 -3 -6 -6z"/>
<path d="M560 1106 c0 -2 7 -7 16 -10 8 -3 12 -2 9 4 -6 10 -25 14 -25 6z"/>
<path d="M2945 1078 c-25 -18 -55 -49 -67 -68 -11 -19 -13 -26 -4 -15 39 48
71 77 105 95 20 10 31 19 25 20 -7 0 -33 -15 -59 -32z"/>
<path d="M3233 1080 c25 -16 60 -48 77 -71 16 -23 30 -38 30 -34 0 27 -114
135 -143 135 -6 0 10 -13 36 -30z"/>
<path d="M275 1069 c-20 -18 -40 -41 -46 -53 -6 -11 1 -7 15 11 15 17 39 41
54 52 15 11 24 21 20 21 -4 0 -23 -14 -43 -31z"/>
<path d="M637 1049 c22 -25 44 -56 48 -68 4 -13 9 -20 12 -18 9 9 -25 62 -63
97 l-38 35 41 -46z"/>
<path d="M3018 1018 c-72 -32 -73 -34 -94 -118 -20 -82 -18 -90 36 -158 l51
-62 88 0 89 0 51 67 c56 72 55 68 27 182 -11 43 -16 48 -81 83 -39 21 -77 37
-85 37 -8 0 -45 -14 -82 -31z m123 -71 c33 -16 42 -17 57 -6 16 13 16 13 0 -6
-12 -14 -14 -25 -8 -35 5 -8 10 -24 10 -34 0 -10 8 -25 18 -32 16 -12 16 -13
-3 -9 -24 6 -67 -55 -59 -83 5 -16 5 -16 -6 1 -13 20 -95 24 -104 5 -3 -8 -5
-8 -3 2 3 22 -45 81 -60 76 -7 -3 -13 -1 -13 4 0 6 6 10 14 10 16 0 30 83 15
88 -5 2 -9 8 -9 14 0 7 5 6 14 -1 18 -15 85 15 87 38 1 14 2 14 6 1 2 -8 22
-23 44 -33z"/>
<path d="M3051 926 c-10 -12 -8 -17 7 -25 22 -12 32 -6 32 21 0 21 -23 24 -39
4z"/>
<path d="M3110 915 c0 -29 12 -32 31 -9 10 13 10 17 -2 25 -23 14 -29 11 -29
-16z"/>
<path d="M3020 891 c0 -5 -3 -16 -6 -25 -7 -18 12 -21 35 -7 12 8 12 12 2 25
-15 18 -31 21 -31 7z"/>
<path d="M3149 884 c-10 -13 -10 -17 2 -25 22 -13 29 -11 29 10 0 27 -15 34
-31 15z"/>
<path d="M3082 858 c6 -18 28 -21 28 -4 0 9 -7 16 -16 16 -9 0 -14 -5 -12 -12z"/>
<path d="M3033 832 c-10 -6 -10 -12 2 -28 13 -16 16 -17 25 -4 21 32 4 52 -27
32z"/>
<path d="M3130 821 c0 -28 15 -33 34 -12 15 17 16 19 1 25 -27 10 -35 7 -35
-13z"/>
<path d="M3081 801 c-8 -15 -7 -20 6 -25 21 -8 35 6 27 27 -8 22 -21 21 -33
-2z"/>
<path d="M402 1031 c-66 -17 -122 -91 -122 -161 0 -113 105 -198 210 -170 111
30 163 153 108 252 -38 66 -117 98 -196 79z m108 -119 c27 -33 25 -68 -5 -97
-29 -30 -73 -32 -102 -5 -32 30 -37 56 -16 92 30 52 87 56 123 10z"/>
<path d="M1275 1031 c-74 -18 -125 -85 -125 -165 0 -56 18 -94 60 -130 112
-94 280 -14 280 134 0 73 -52 139 -128 160 -41 11 -44 11 -87 1z m105 -119
c27 -33 25 -68 -5 -97 -65 -66 -173 20 -118 93 34 46 89 48 123 4z"/>
<path d="M2153 990 c-40 -24 -67 -65 -59 -87 5 -13 10 -10 24 18 32 64 114 84
177 43 l26 -17 -32 -33 c-18 -18 -35 -31 -39 -29 -7 4 -19 -27 -20 -47 0 -15
39 8 65 40 15 17 30 32 34 32 4 0 13 -15 20 -32 13 -30 14 -31 18 -10 6 33
-27 93 -66 119 -43 29 -104 30 -148 3z"/>
<path d="M2461 975 c1 -19 18 -51 18 -35 0 8 -4 22 -9 30 -5 8 -9 11 -9 5z"/>
<path d="M1961 934 c0 -11 3 -14 6 -6 3 7 2 16 -1 19 -3 4 -6 -2 -5 -13z"/>
<path d="M3351 924 c0 -11 3 -14 6 -6 3 7 2 16 -1 19 -3 4 -6 -2 -5 -13z"/>
<path d="M713 870 c0 -30 2 -43 4 -27 2 15 2 39 0 55 -2 15 -4 2 -4 -28z"/>
<path d="M1750 901 c0 -18 -6 -21 -45 -21 -25 0 -45 -4 -45 -10 0 -5 20 -10
45 -10 39 0 45 -3 45 -20 0 -20 1 -20 40 2 22 13 40 26 40 29 0 3 -18 15 -40
28 -40 22 -40 22 -40 2z"/>
<path d="M2483 870 c0 -30 2 -43 4 -27 2 15 2 39 0 55 -2 15 -4 2 -4 -28z"/>
<path d="M2670 900 c0 -17 -7 -20 -45 -20 -25 0 -45 -4 -45 -10 0 -5 20 -10
45 -10 38 0 45 -3 45 -20 0 -19 1 -19 35 1 19 12 35 25 35 29 0 4 -16 17 -35
29 -34 20 -35 20 -35 1z"/>
<path d="M1053 870 c0 -25 2 -35 4 -22 2 12 2 32 0 45 -2 12 -4 2 -4 -23z"/>
<path d="M1583 870 c0 -25 2 -35 4 -22 2 12 2 32 0 45 -2 12 -4 2 -4 -23z"/>
<path d="M1953 870 c0 -25 2 -35 4 -22 2 12 2 32 0 45 -2 12 -4 2 -4 -23z"/>
<path d="M2833 860 c0 -30 2 -43 4 -27 2 15 2 39 0 55 -2 15 -4 2 -4 -28z"/>
<path d="M183 865 c0 -22 2 -30 4 -17 2 12 2 30 0 40 -3 9 -5 -1 -4 -23z"/>
<path d="M2170 855 c-41 -42 -55 -44 -68 -7 -7 18 -11 21 -11 9 -3 -57 66
-117 134 -117 56 0 124 49 125 90 0 8 -9 1 -20 -17 -38 -63 -126 -83 -175 -40
l-27 23 42 37 c23 21 40 43 38 48 -2 5 -19 -6 -38 -26z"/>
<path d="M3362 860 c0 -19 2 -27 5 -17 2 9 2 25 0 35 -3 9 -5 1 -5 -18z"/>
<path d="M191 804 c0 -11 3 -14 6 -6 3 7 2 16 -1 19 -3 4 -6 -2 -5 -13z"/>
<path d="M1961 804 c0 -11 3 -14 6 -6 3 7 2 16 -1 19 -3 4 -6 -2 -5 -13z"/>
<path d="M2471 803 c-1 -6 -4 -20 -7 -30 -5 -17 -5 -17 6 0 6 10 9 23 6 30 -3
9 -5 9 -5 0z"/>
<path d="M3351 794 c0 -11 3 -14 6 -6 3 7 2 16 -1 19 -3 4 -6 -2 -5 -13z"/>
<path d="M200 776 c-1 -21 52 -96 83 -117 31 -22 31 -22 -6 15 -20 20 -46 54
-57 74 -10 20 -19 33 -20 28z"/>
<path d="M1070 777 c-2 -40 135 -175 156 -154 3 2 -8 10 -24 16 -34 14 -93 73
-115 116 -9 17 -16 26 -17 22z"/>
<path d="M1551 751 c-14 -33 -74 -92 -116 -114 -16 -9 -25 -16 -19 -17 35 -1
154 115 154 152 0 16 -8 8 -19 -21z"/>
<path d="M1970 777 c-2 -40 135 -175 156 -154 3 2 -8 10 -24 16 -34 14 -93 73
-115 116 -9 17 -16 26 -17 22z"/>
<path d="M668 724 c-15 -24 -48 -57 -75 -74 -26 -16 -42 -30 -36 -30 32 0 159
128 142 144 -2 2 -16 -16 -31 -40z"/>
<path d="M3331 743 c-10 -26 -10 -27 4 -9 8 11 15 23 15 28 0 15 -7 8 -19 -19z"/>
<path d="M2850 753 c0 -6 9 -21 21 -34 l20 -24 -17 30 c-24 39 -24 40 -24 28z"/>
<path d="M2430 718 c-26 -36 -47 -54 -94 -80 -17 -9 -26 -17 -20 -18 28 -1
108 66 135 113 16 28 5 20 -21 -15z"/>
<path d="M3281 676 c-19 -19 -47 -40 -63 -47 -16 -6 -27 -14 -24 -16 8 -8 61
25 95 61 19 20 33 36 30 36 -3 0 -20 -15 -38 -34z"/>
<path d="M2894 682 c8 -13 66 -56 66 -49 0 3 -17 17 -37 33 -20 15 -33 23 -29
16z"/>
<path d="M327 629 c7 -7 15 -10 18 -7 3 3 -2 9 -12 12 -14 6 -15 5 -6 -5z"/>
<path d="M418 603 c17 -2 47 -2 65 0 17 2 3 4 -33 4 -36 0 -50 -2 -32 -4z"/>
<path d="M1298 603 c12 -2 32 -2 45 0 12 2 2 4 -23 4 -25 0 -35 -2 -22 -4z"/>
<path d="M2198 603 c12 -2 32 -2 45 0 12 2 2 4 -23 4 -25 0 -35 -2 -22 -4z"/>
<path d="M3073 593 c15 -2 39 -2 55 0 15 2 2 4 -28 4 -30 0 -43 -2 -27 -4z"/>
<path d="M30 470 c0 -22 5 -40 10 -40 6 0 10 18 10 40 0 22 -4 40 -10 40 -5 0
-10 -18 -10 -40z"/>
<path d="M67 503 c-12 -11 -8 -21 16 -44 l22 -21 -24 7 c-16 5 -21 4 -17 -4
11 -17 46 -13 53 5 4 11 -1 22 -12 30 -17 13 -17 14 -1 14 9 0 14 5 11 10 -7
11 -38 13 -48 3z"/>
<path d="M133 494 c-4 -10 1 -22 10 -29 22 -16 22 -26 0 -18 -11 4 -14 3 -9
-5 11 -18 46 -15 53 4 4 11 -3 23 -18 35 -15 12 -17 17 -6 13 9 -3 17 -1 17 5
0 17 -40 13 -47 -5z"/>
<path d="M202 473 c3 -33 6 -38 28 -38 22 0 25 5 28 38 2 21 -1 37 -7 37 -6 0
-11 -16 -11 -35 0 -19 -4 -35 -10 -35 -5 0 -10 16 -10 35 0 19 -5 35 -11 35
-6 0 -9 -16 -7 -37z"/>
<path d="M270 470 c0 -39 1 -40 33 -39 23 1 26 3 10 6 -13 2 -23 11 -23 18 0
7 10 16 23 18 l22 4 -22 2 c-13 0 -23 5 -23 10 0 5 10 12 23 14 16 3 13 5 -10
6 -32 1 -33 0 -33 -39z"/>
<path d="M373 503 c12 -3 17 -15 17 -39 0 -19 5 -34 10 -34 6 0 10 16 10 35 0
19 5 35 10 35 6 0 10 -16 10 -35 0 -35 20 -51 20 -17 1 16 1 16 14 0 14 -19
56 -25 56 -8 0 14 28 12 33 -2 2 -7 8 -10 12 -6 10 10 -14 78 -28 78 -7 0 -20
-17 -29 -38 l-17 -37 2 35 2 35 -70 2 c-38 0 -62 -1 -52 -4z m99 -18 c0 -5 -5
-11 -11 -13 -6 -2 -11 4 -11 13 0 9 5 15 11 13 6 -2 11 -8 11 -13z"/>
<path d="M584 496 c-12 -32 0 -61 29 -64 15 -2 27 2 27 8 0 7 -8 9 -20 5 -17
-5 -20 -2 -20 25 0 27 3 30 20 25 11 -4 20 -2 20 4 0 16 -50 13 -56 -3z"/>
<path d="M650 470 c0 -39 12 -53 24 -27 5 10 7 10 12 0 3 -8 24 -12 52 -12 26
1 37 4 25 6 -13 2 -23 11 -23 18 0 7 10 16 23 18 l22 4 -22 2 c-13 0 -23 5
-23 10 0 5 10 12 23 14 12 2 2 5 -23 6 -26 0 -51 -4 -58 -11 -9 -9 -12 -9 -12
0 0 7 -4 12 -10 12 -5 0 -10 -18 -10 -40z m70 -2 c-1 -28 -2 -30 -11 -15 -6
10 -8 25 -5 33 9 24 16 16 16 -18z"/>
<path d="M790 471 c0 -23 5 -41 10 -41 6 0 10 7 10 17 0 15 1 15 18 0 26 -24
29 -22 28 21 -1 34 -3 37 -33 40 -32 3 -33 2 -33 -37z m50 14 c0 -8 -7 -15
-15 -15 -8 0 -15 7 -15 15 0 8 7 15 15 15 8 0 15 -7 15 -15z"/>
<path d="M1020 470 c0 -38 20 -60 20 -22 1 16 1 16 14 0 9 -13 26 -18 57 -17
24 1 34 4 22 6 -13 2 -23 11 -23 18 0 7 10 16 23 18 l22 4 -22 2 c-13 0 -23 5
-23 10 0 5 10 12 23 14 16 3 13 5 -10 6 -31 1 -33 -1 -33 -35 0 -20 -4 -33
-10 -29 -5 3 -7 19 -3 35 5 28 4 30 -26 30 -30 0 -31 -2 -31 -40z m40 15 c0
-8 -4 -15 -10 -15 -5 0 -10 7 -10 15 0 8 5 15 10 15 6 0 10 -7 10 -15z"/>
<path d="M1160 471 c0 -23 5 -41 10 -41 6 0 10 6 10 14 0 7 9 16 21 19 31 8
21 41 -14 45 -25 3 -27 1 -27 -37z m40 14 c0 -8 -4 -15 -10 -15 -5 0 -10 7
-10 15 0 8 5 15 10 15 6 0 10 -7 10 -15z"/>
<path d="M1234 496 c-3 -8 -4 -25 -2 -38 2 -18 9 -23 33 -23 28 0 30 3 30 35
0 31 -3 35 -28 38 -17 2 -29 -2 -33 -12z m46 -26 c0 -10 -5 -22 -10 -25 -13
-8 -24 20 -16 41 8 20 26 9 26 -16z"/>
<path d="M1313 494 c-4 -10 1 -22 10 -29 22 -16 22 -26 0 -18 -11 4 -14 3 -9
-5 11 -18 46 -15 53 4 4 11 -3 23 -18 35 -15 12 -17 17 -6 13 9 -3 17 -1 17 5
0 17 -40 13 -47 -5z"/>
<path d="M1380 470 c0 -22 5 -40 10 -40 6 0 10 16 10 35 0 19 5 35 10 35 6 0
10 -16 10 -35 0 -19 5 -35 10 -35 6 0 10 15 10 34 0 19 6 37 13 39 6 3 -7 6
-30 6 l-43 1 0 -40z"/>
<path d="M1470 490 c-22 -40 26 -80 58 -48 9 9 12 9 12 0 0 -7 5 -12 10 -12 6
0 10 7 10 17 0 15 1 15 18 0 23 -21 36 -22 28 -2 -7 19 3 47 15 39 5 -3 9 -16
9 -30 0 -13 5 -24 10 -24 6 0 10 7 10 15 0 9 7 27 16 40 15 23 15 25 0 25 -9
0 -16 -5 -16 -11 0 -8 -4 -8 -12 -2 -20 15 -98 16 -98 1 0 -9 -3 -9 -12 0 -18
18 -46 14 -58 -8z m45 -20 c0 -27 -20 -38 -28 -15 -8 20 3 47 17 42 6 -2 11
-14 11 -27z m75 15 c0 -8 -7 -15 -15 -15 -8 0 -15 7 -15 15 0 8 7 15 15 15 8
0 15 -7 15 -15z"/>
<path d="M2010 471 c0 -23 5 -41 10 -41 6 0 10 6 10 14 0 7 9 16 21 19 31 8
21 41 -14 45 -25 3 -27 1 -27 -37z m40 14 c0 -8 -4 -15 -10 -15 -5 0 -10 7
-10 15 0 8 5 15 10 15 6 0 10 -7 10 -15z"/>
<path d="M2080 470 c0 -22 5 -40 10 -40 6 0 10 18 10 40 0 22 -4 40 -10 40 -5
0 -10 -18 -10 -40z"/>
<path d="M2110 469 c0 -21 5 -39 10 -39 6 0 10 6 10 14 0 7 9 16 20 19 15 4
20 0 20 -14 0 -15 7 -19 33 -18 23 1 26 3 10 6 -13 2 -23 11 -23 18 0 7 10 16
23 18 l22 4 -22 2 c-13 0 -23 5 -23 10 0 5 10 11 23 14 12 2 -6 4 -40 5 l-63
0 0 -39z m35 22 c3 -5 1 -12 -5 -16 -5 -3 -10 1 -10 9 0 18 6 21 15 7z"/>
<path d="M2240 470 l0 -40 40 0 40 0 0 40 c0 22 -4 40 -10 40 -5 0 -10 -16
-10 -35 0 -28 -4 -35 -20 -35 -16 0 -20 7 -20 35 0 19 -4 35 -10 35 -5 0 -10
-18 -10 -40z"/>
<path d="M2330 470 c0 -22 5 -40 10 -40 6 0 10 8 10 18 1 16 1 16 11 0 19 -33
39 -21 39 22 0 28 -4 40 -14 40 -8 0 -17 -6 -19 -12 -4 -10 -6 -10 -6 0 -1 6
-8 12 -16 12 -11 0 -15 -11 -15 -40z"/>
<path d="M2410 470 c0 -39 1 -40 33 -39 23 1 26 3 10 6 -27 5 -31 30 -5 36 16
4 16 5 0 6 -26 2 -22 19 5 24 16 3 13 5 -10 6 -32 1 -33 0 -33 -39z"/>
<path d="M2890 470 c0 -39 1 -41 28 -38 24 3 27 7 27 38 0 31 -3 35 -27 38
-27 3 -28 1 -28 -38z m40 20 c0 -5 -4 -10 -10 -10 -5 0 -10 5 -10 10 0 6 5 10
10 10 6 0 10 -4 10 -10z m0 -35 c0 -8 -4 -15 -10 -15 -5 0 -10 7 -10 15 0 8 5
15 10 15 6 0 10 -7 10 -15z"/>
<path d="M2960 470 c0 -39 1 -40 33 -39 23 1 26 3 10 6 -19 4 -23 11 -23 39 0
19 -4 34 -10 34 -5 0 -10 -18 -10 -40z"/>
<path d="M3020 483 c0 -39 13 -55 41 -51 20 2 25 10 27 41 2 21 -1 37 -7 37
-6 0 -11 -13 -11 -29 0 -17 -4 -32 -9 -35 -10 -7 -21 17 -21 45 0 10 -4 19
-10 19 -5 0 -10 -12 -10 -27z"/>
<path d="M3100 470 c0 -40 0 -40 39 -40 29 0 41 5 44 18 4 14 5 14 6 1 1 -11
10 -16 26 -16 22 0 25 4 25 38 0 28 -4 39 -15 39 -8 0 -15 -5 -15 -12 0 -9 -3
-9 -12 0 -7 7 -31 12 -55 12 l-43 0 0 -40z m60 0 c0 -23 -4 -30 -20 -30 -25 0
-27 30 -2 31 16 1 16 2 0 6 -24 6 -23 23 2 23 16 0 20 -7 20 -30z"/>
<path d="M3250 470 c0 -36 3 -40 25 -40 14 0 25 5 25 11 0 8 5 7 15 -1 20 -16
32 -5 16 14 -9 10 -9 20 -2 34 9 16 6 19 -19 19 -26 0 -28 -3 -23 -27 3 -15 0
-31 -6 -34 -7 -5 -11 5 -11 28 0 20 -4 36 -10 36 -5 0 -10 -18 -10 -40z"/>
<path d="M252 368 c-27 -27 -6 -68 35 -68 16 0 23 6 23 20 0 11 -7 20 -15 20
-9 0 -12 -6 -8 -16 4 -12 2 -15 -8 -12 -8 3 -14 16 -14 29 0 19 5 23 23 22 13
-2 21 1 17 7 -8 14 -38 13 -53 -2z"/>
<path d="M357 373 c-13 -12 -8 -73 6 -73 8 0 12 13 11 36 -2 38 -7 48 -17 37z"/>
<path d="M390 340 c0 -22 5 -40 10 -40 6 0 10 9 10 20 0 11 5 20 10 20 6 0 10
-9 10 -20 0 -11 5 -20 10 -20 6 0 10 18 10 40 0 22 -4 40 -10 40 -5 0 -10 -7
-10 -15 0 -8 -4 -15 -10 -15 -5 0 -10 7 -10 15 0 8 -4 15 -10 15 -5 0 -10 -18
-10 -40z"/>
<path d="M520 339 c0 -38 1 -40 28 -37 35 4 45 46 13 55 -12 3 -21 9 -21 14 0
5 -4 9 -10 9 -5 0 -10 -18 -10 -41z m32 -21 c-9 -9 -12 -7 -12 12 0 19 3 21
12 12 9 -9 9 -15 0 -24z"/>
<path d="M1182 368 c-27 -27 -6 -68 35 -68 16 0 23 6 23 20 0 11 -7 20 -15 20
-9 0 -12 -6 -8 -16 4 -12 2 -15 -8 -12 -8 3 -14 16 -14 29 0 19 5 23 23 22 13
-2 21 1 17 7 -8 14 -38 13 -53 -2z"/>
<path d="M1287 373 c-4 -3 -7 -21 -7 -40 0 -30 3 -33 30 -33 23 0 30 4 30 20
0 11 5 20 10 20 6 0 10 -9 10 -20 0 -11 5 -20 10 -20 6 0 10 18 10 40 0 22 -4
40 -10 40 -5 0 -10 -7 -10 -15 0 -8 -4 -15 -10 -15 -5 0 -10 7 -10 15 0 8 -7
15 -15 15 -8 0 -15 -6 -15 -12 0 -10 -2 -10 -8 0 -5 7 -11 9 -15 5z m20 -55
c-3 -7 -5 -2 -5 12 0 14 2 19 5 13 2 -7 2 -19 0 -25z"/>
<path d="M1450 339 c0 -38 1 -40 28 -37 35 4 45 46 13 55 -12 3 -21 9 -21 14
0 5 -4 9 -10 9 -5 0 -10 -18 -10 -41z m32 -21 c-9 -9 -12 -7 -12 12 0 19 3 21
12 12 9 -9 9 -15 0 -24z"/>
<path d="M2830 340 c0 -22 5 -40 10 -40 6 0 10 8 10 18 1 16 1 16 11 0 7 -12
22 -18 49 -18 38 0 40 2 40 30 0 38 -17 39 -23 3 l-4 -28 -2 28 c0 15 -5 27
-11 27 -5 0 -10 -12 -10 -27 -1 -26 -1 -27 -15 -9 -10 13 -11 24 -4 37 11 21
-1 25 -19 7 -9 -9 -12 -9 -12 0 0 7 -4 12 -10 12 -5 0 -10 -18 -10 -40z"/>
<path d="M2960 341 l0 -39 55 0 c30 0 55 5 55 10 0 6 -7 8 -15 4 -8 -3 -15 -1
-15 4 0 6 9 10 20 10 11 0 20 -7 20 -15 0 -8 5 -15 10 -15 6 0 10 11 10 25 0
14 5 25 10 25 6 0 10 -11 10 -25 0 -34 18 -32 23 3 l4 27 2 -27 c2 -38 21 -36
21 2 0 29 -2 30 -45 30 -29 0 -45 -4 -45 -12 0 -10 -2 -10 -8 -1 -4 6 -25 11
-46 10 -23 -1 -41 4 -44 11 -8 26 -22 10 -22 -27z m32 -23 c-9 -9 -12 -7 -12
12 0 19 3 21 12 12 9 -9 9 -15 0 -24z"/>
<path d="M3244 371 c-5 -5 -20 -11 -34 -13 -34 -4 -36 -51 -2 -56 12 -2 22 2
22 8 0 7 -7 10 -15 6 -8 -3 -15 -1 -15 4 0 6 9 10 20 10 11 0 20 -7 20 -15 0
-8 6 -15 13 -15 8 0 12 13 11 36 -2 40 -6 48 -20 35z"/>
<path d="M320 330 c0 -16 5 -30 10 -30 6 0 10 14 10 30 0 17 -4 30 -10 30 -5
0 -10 -13 -10 -30z"/>
<path d="M462 333 c2 -20 9 -29 26 -31 19 -3 22 1 22 27 0 38 -17 41 -23 4
l-4 -28 -2 28 c0 15 -6 27 -12 27 -6 0 -9 -12 -7 -27z"/>
<path d="M1250 330 c0 -16 5 -30 10 -30 6 0 10 14 10 30 0 17 -4 30 -10 30 -5
0 -10 -13 -10 -30z"/>
<path d="M1390 330 c0 -25 4 -30 25 -30 21 0 25 5 25 30 0 38 -17 39 -23 3
l-4 -28 -2 28 c-2 37 -21 35 -21 -3z"/>
<path d="M3274 345 c-4 -8 -4 -22 0 -30 6 -17 46 -21 46 -4 0 6 -7 9 -15 5 -8
-3 -15 -1 -15 4 0 6 11 10 25 10 18 0 23 -4 18 -16 -4 -12 0 -15 18 -12 18 2
24 9 24 28 0 28 -32 41 -46 18 -6 -10 -9 -10 -9 0 0 17 -39 15 -46 -3z"/>
<path d="M2935 230 c-13 -40 3 -60 46 -58 38 1 39 2 39 38 0 36 -1 37 -39 38
-32 1 -41 -2 -46 -18z m65 -20 c0 -22 -39 -34 -47 -14 -3 8 -3 20 0 28 8 20
47 8 47 -14z"/>
<path d="M3157 243 c-4 -3 -7 -15 -7 -25 0 -10 -4 -18 -10 -18 -5 0 -7 7 -4
15 5 11 -2 14 -30 13 -28 -1 -36 -5 -36 -20 0 -10 -4 -18 -10 -18 -5 0 -10 9
-10 20 0 11 -5 20 -11 20 -6 0 -9 -12 -7 -27 3 -27 4 -28 73 -29 l70 -2 -1 35
c-2 37 -7 47 -17 36z m-31 -60 c-6 -6 -36 9 -36 18 0 5 9 4 20 -3 10 -7 18
-14 16 -15z"/>
<path d="M3186 214 c-8 -22 4 -44 25 -44 24 0 25 17 2 23 -14 4 -12 5 5 6 13
1 22 -5 22 -14 0 -8 5 -15 10 -15 6 0 10 8 10 18 0 10 5 23 11 29 8 8 -1 11
-34 11 -30 0 -47 -4 -51 -14z"/>
</g>
</svg>
